<svg width="256" height="256" viewBox="0 0 256 256" fill="none" xmlns="http://www.w3.org/2000/svg">
<path d="M154 46.5C154 60.5833 142.583 72 128.5 72C114.417 72 103 60.5833 103 46.5C103 32.4167 114.417 21 128.5 21C142.583 21 154 32.4167 154 46.5ZM154 118.5C154 132.583 142.583 144 128.5 144C114.417 144 103 132.583 103 118.5C103 104.417 114.417 93 128.5 93C142.583 93 154 104.417 154 118.5ZM154 190.5C154 204.583 142.583 216 128.5 216C114.417 216 103 204.583 103 190.5C103 176.417 114.417 165 128.5 165C142.583 165 154 176.417 154 190.5Z" fill="black"/>
</svg>
