<svg width="256" height="256" viewBox="0 0 256 256" fill="none" xmlns="http://www.w3.org/2000/svg">
<path d="M137.324 30C147.529 30.0002 156.618 36.4542 159.982 46.0889L164.488 58.9961L203 58.9951C207.418 58.9951 211 62.5762 211 66.9941C211 71.4124 207.418 74.995 203 74.9951H189V201C189 214.255 178.255 225 165 225H91C77.7452 225 67 214.255 67 201V74.999L53 75C48.5818 75 45.0002 71.4182 45 67C45 62.5818 48.5818 59.0002 53 59L90.3203 58.998L94.8281 46.0889C98.1922 36.454 107.281 30 117.486 30H137.324ZM96.1787 74.998C96.0796 75.0003 95.9804 74.9995 95.8809 74.998H83V201C83 205.418 86.5817 209 91 209H165C169.418 209 173 205.418 173 201V74.9951L96.1787 74.998ZM117.486 46C114.085 46 111.055 48.1517 109.934 51.3633L107.267 58.998L147.542 58.9961L144.877 51.3633C143.756 48.1518 140.726 46.0002 137.324 46H117.486Z" fill="black"/>
</svg>
