<svg width="255" height="255" viewBox="0 0 255 255" fill="none" xmlns="http://www.w3.org/2000/svg">
<rect width="255" height="255" rx="60" transform="matrix(-1 0 0 1 255 0)" fill="#141414"/>
<rect x="140" y="160" width="26" height="64" rx="13" transform="rotate(180 140 160)" fill="#F2F2F2"/>
<path d="M143 114.811V140.189C143 145.922 147.055 150.854 152.68 151.963L214.68 164.179C222.096 165.64 229 159.963 229 152.405V102.595C229 95.0365 222.096 89.3603 214.68 90.8215L152.68 103.037C147.055 104.146 143 109.078 143 114.811Z" fill="#F2F2F2"/>
<path d="M111 114.811V140.189C111 145.922 106.945 150.854 101.32 151.963L39.3198 164.179C31.9038 165.64 25 159.963 25 152.405V102.595C25 95.0365 31.9038 89.3603 39.3198 90.8215L101.32 103.037C106.945 104.146 111 109.078 111 114.811Z" fill="#F2F2F2"/>
</svg>
